<?xml version="1.0" encoding="UTF-8" standalone="no"?>
<svg
   xmlns:dc="http://purl.org/dc/elements/1.1/"
   xmlns:cc="http://creativecommons.org/ns#"
   xmlns:rdf="http://www.w3.org/1999/02/22-rdf-syntax-ns#"
   xmlns:svg="http://www.w3.org/2000/svg"
   xmlns="http://www.w3.org/2000/svg"
   xmlns:sodipodi="http://sodipodi.sourceforge.net/DTD/sodipodi-0.dtd"
   xmlns:inkscape="http://www.inkscape.org/namespaces/inkscape"
   version="1.1"
   x="0px"
   y="0px"
   width="24px"
   height="24px"
   viewBox="0 0 24 24"
   style="enable-background:new 0 0 24 24;"
   xml:space="preserve"
   id="svg5"
   sodipodi:docname="menu.svg"
   inkscape:version="1.0.2-2 (e86c870879, 2021-01-15)"><metadata
   id="metadata11"><rdf:RDF><cc:Work
       rdf:about=""><dc:format>image/svg+xml</dc:format><dc:type
         rdf:resource="http://purl.org/dc/dcmitype/StillImage" /></cc:Work></rdf:RDF></metadata><defs
   id="defs9" /><sodipodi:namedview
   pagecolor="#ffffff"
   bordercolor="#666666"
   borderopacity="1"
   objecttolerance="10"
   gridtolerance="10"
   guidetolerance="10"
   inkscape:pageopacity="0"
   inkscape:pageshadow="2"
   inkscape:window-width="1920"
   inkscape:window-height="1057"
   id="namedview7"
   showgrid="false"
   inkscape:zoom="18.541667"
   inkscape:cx="20.272029"
   inkscape:cy="14.980205"
   inkscape:window-x="-8"
   inkscape:window-y="-8"
   inkscape:window-maximized="1"
   inkscape:current-layer="svg5" />
<g
   id="Icons"
   style="opacity:0.75;">
	<path
   id="menu"
   d="M6,15h12c0.553,0,1,0.447,1,1v1c0,0.553-0.447,1-1,1H6c-0.553,0-1-0.447-1-1v-1C5,15.447,5.447,15,6,15z M5,11v1   c0,0.553,0.447,1,1,1h12c0.553,0,1-0.447,1-1v-1c0-0.553-0.447-1-1-1H6C5.447,10,5,10.447,5,11z M5,6v1c0,0.553,0.447,1,1,1h12   c0.553,0,1-0.447,1-1V6c0-0.553-0.447-1-1-1H6C5.447,5,5,5.447,5,6z" />
</g>
<g
   id="Guides"
   style="display:none;">
</g>
<path
   style="fill:#00bfe8;fill-opacity:1;stroke-width:0.0539326"
   d="M 5.6283294,7.8938106 C 5.4064639,7.7971376 5.1348584,7.4758094 5.0662829,7.2288704 4.993185,6.9656465 4.993185,6.006 5.0662829,5.742776 5.0973985,5.6307292 5.1969184,5.4547031 5.2874381,5.3516069 5.6097524,4.9845111 5.3197613,4.9987701 12.132391,5.0150371 c 6.783907,0.016198 6.276993,-0.011909 6.594698,0.3656616 0.2148,0.2552753 0.261774,0.4971417 0.241747,1.244742 -0.01686,0.62953 -0.02846,0.6933206 -0.162912,0.8962504 -0.08705,0.1313887 -0.238957,0.2640824 -0.381072,0.3328791 l -0.236317,0.1143991 -6.198702,-0.00211 C 6.9888701,7.9651552 5.7596729,7.9510405 5.6283294,7.8938106 Z"
   id="path850" /><path
   style="fill:#00bfe8;fill-opacity:1;stroke-width:0.0539326"
   d="M 5.627101,12.883324 C 5.3611119,12.762502 5.1399238,12.509738 5.0654134,12.241452 4.993025,11.980806 4.9935881,11.020279 5.0662829,10.758506 5.0973985,10.64646 5.1954728,10.47208 5.2842257,10.370996 5.6155245,9.9936674 5.2130118,10.013766 12.10521,10.030398 l 6.206215,0.01498 0.189659,0.129968 c 0.371677,0.254698 0.447075,0.435054 0.468867,1.121554 0.01069,0.336868 0.003,0.721974 -0.01704,0.855792 -0.04423,0.294923 -0.284607,0.590409 -0.595023,0.731428 -0.205065,0.09316 -0.532677,0.09821 -6.364508,0.09821 -5.8498227,0 -6.1588962,-0.0048 -6.366276,-0.09901 z"
   id="path852" /><path
   style="fill:#00bfe8;fill-opacity:1;stroke-width:0.0539326"
   d="m 5.7736905,17.937437 c -0.2903972,-0.06574 -0.6268799,-0.387099 -0.7068477,-0.675078 -0.074503,-0.268299 -0.073539,-1.225314 0.00151,-1.495606 0.082002,-0.295347 0.2473932,-0.499052 0.507368,-0.624904 0.2184845,-0.105766 0.3344257,-0.10769 6.4212052,-0.106527 5.97289,0.0011 6.206921,0.0049 6.424348,0.103632 0.141775,0.06437 0.282099,0.187656 0.377528,0.331694 0.142964,0.215789 0.152948,0.269041 0.170038,0.907018 0.02003,0.747601 -0.02695,0.989467 -0.241748,1.244742 -0.317976,0.377895 0.19158,0.35014 -6.598879,0.359435 -3.8293041,0.0052 -6.2086561,-0.01139 -6.354519,-0.04441 z"
   id="path854" /></svg>
